<svg viewBox="0 0 300 350" xmlns="http://www.w3.org/2000/svg">
  <!-- Main Building Structure -->
  <rect x="50" y="100" width="200" height="200" fill="#8b7d6b" stroke="#6b5d4a" stroke-width="2"/>
  
  <!-- Ground Floor -->
  <rect x="50" y="200" width="200" height="100" fill="#8b7d6b" stroke="#6b5d4a" stroke-width="1"/>
  
  <!-- Second Floor -->
  <rect x="50" y="100" width="200" height="100" fill="#8b7d6b" stroke="#6b5d4a" stroke-width="1"/>
  
  <!-- Flat Roof -->
  <rect x="45" y="95" width="210" height="10" fill="#6b5d4a" stroke="#4a3d2a" stroke-width="1"/>
  
  <!-- Ground Floor Left Window (Large) -->
  <rect x="70" y="220" width="50" height="60" fill="#ff9500" stroke="#2c2c2c" stroke-width="2"/>
  <!-- Window grid lines -->
  <line x1="85" y1="220" x2="85" y2="280" stroke="#2c2c2c" stroke-width="1.5"/>
  <line x1="105" y1="220" x2="105" y2="280" stroke="#2c2c2c" stroke-width="1.5"/>
  <line x1="70" y1="240" x2="120" y2="240" stroke="#2c2c2c" stroke-width="1.5"/>
  <line x1="70" y1="260" x2="120" y2="260" stroke="#2c2c2c" stroke-width="1.5"/>
  
  <!-- Ground Floor Right Window (Large) -->
  <rect x="180" y="220" width="50" height="60" fill="#ff9500" stroke="#2c2c2c" stroke-width="2"/>
  <!-- Window grid lines -->
  <line x1="195" y1="220" x2="195" y2="280" stroke="#2c2c2c" stroke-width="1.5"/>
  <line x1="215" y1="220" x2="215" y2="280" stroke="#2c2c2c" stroke-width="1.5"/>
  <line x1="180" y1="240" x2="230" y2="240" stroke="#2c2c2c" stroke-width="1.5"/>
  <line x1="180" y1="260" x2="230" y2="260" stroke="#2c2c2c" stroke-width="1.5"/>
  
  <!-- Front Door -->
  <rect x="135" y="240" width="30" height="60" fill="#654321" stroke="#4a2c17" stroke-width="2"/>
  <circle cx="155" cy="265" r="2" fill="#ffd700">
    <animate attributeName="r" values="2;3;2" dur="4s" repeatCount="indefinite"/>
  </circle>
  
  <!-- Second Floor Left Window -->
  <rect x="70" y="120" width="50" height="60" fill="#ff9500" stroke="#2c2c2c" stroke-width="2"/>
  <!-- Window grid lines -->
  <line x1="85" y1="120" x2="85" y2="180" stroke="#2c2c2c" stroke-width="1.5"/>
  <line x1="105" y1="120" x2="105" y2="180" stroke="#2c2c2c" stroke-width="1.5"/>
  <line x1="70" y1="140" x2="120" y2="140" stroke="#2c2c2c" stroke-width="1.5"/>
  <line x1="70" y1="160" x2="120" y2="160" stroke="#2c2c2c" stroke-width="1.5"/>
  
  <!-- Second Floor Center Window -->
  <rect x="135" y="120" width="30" height="60" fill="#ff9500" stroke="#2c2c2c" stroke-width="2"/>
  <!-- Window grid lines -->
  <line x1="150" y1="120" x2="150" y2="180" stroke="#2c2c2c" stroke-width="1.5"/>
  <line x1="135" y1="140" x2="165" y2="140" stroke="#2c2c2c" stroke-width="1.5"/>
  <line x1="135" y1="160" x2="165" y2="160" stroke="#2c2c2c" stroke-width="1.5"/>
  
  <!-- Second Floor Right Window -->
  <rect x="180" y="120" width="50" height="60" fill="#ff9500" stroke="#2c2c2c" stroke-width="2"/>
  <!-- Window grid lines -->
  <line x1="195" y1="120" x2="195" y2="180" stroke="#2c2c2c" stroke-width="1.5"/>
  <line x1="215" y1="120" x2="215" y2="180" stroke="#2c2c2c" stroke-width="1.5"/>
  <line x1="180" y1="140" x2="230" y2="140" stroke="#2c2c2c" stroke-width="1.5"/>
  <line x1="180" y1="160" x2="230" y2="160" stroke="#2c2c2c" stroke-width="1.5"/>
  
  <!-- Window Light Animation -->
  <rect x="70" y="220" width="50" height="60" fill="#ffcc66" opacity="0">
    <animate attributeName="opacity" values="0;0.6;0" dur="8s" repeatCount="indefinite"/>
  </rect>
  <rect x="180" y="220" width="50" height="60" fill="#ffcc66" opacity="0">
    <animate attributeName="opacity" values="0;0.6;0" dur="9s" repeatCount="indefinite"/>
  </rect>
  <rect x="70" y="120" width="50" height="60" fill="#ffcc66" opacity="0">
    <animate attributeName="opacity" values="0;0.5;0" dur="10s" repeatCount="indefinite"/>
  </rect>
  <rect x="135" y="120" width="30" height="60" fill="#ffcc66" opacity="0">
    <animate attributeName="opacity" values="0;0.4;0" dur="7s" repeatCount="indefinite"/>
  </rect>
  <rect x="180" y="120" width="50" height="60" fill="#ffcc66" opacity="0">
    <animate attributeName="opacity" values="0;0.5;0" dur="11s" repeatCount="indefinite"/>
  </rect>
  
  <!-- Ground Foundation -->
  <rect x="40" y="300" width="220" height="8" fill="#5d5d5d"/>
  

  
  <!-- Subtle building sway -->
  <animateTransform
    attributeName="transform"
    type="translate"
    values="0,0;1,0;0,0;-1,0;0,0"
    dur="20s"
    repeatCount="indefinite"/>
</svg>