<svg viewBox="0 0 400 320" xmlns="http://www.w3.org/2000/svg">
  <!-- Main house structure -->
  
  <!-- First floor (ground level) -->
  <rect x="60" y="200" width="200" height="80" fill="#F4E5D3" stroke="#E0C9A6" stroke-width="1"/>
  
  <!-- Second floor -->
  <rect x="70" y="140" width="180" height="60" fill="#E8D5B7" stroke="#D4B896" stroke-width="1"/>
  
  <!-- Third floor -->
  <rect x="80" y="90" width="160" height="50" fill="#DCC4A8" stroke="#C8A882" stroke-width="1"/>
  
  <!-- Main roof -->
  <polygon points="65,90 160,40 255,90" fill="#8B4513" stroke="#654321" stroke-width="2"/>
  
  <!-- Garage (attached to right side) -->
  <rect x="260" y="220" width="80" height="60" fill="#F0E6D2" stroke="#DCC4A8" stroke-width="1"/>
  
  <!-- Garage roof -->
  <polygon points="255,220 300,190 345,220" fill="#A0522D" stroke="#8B4513" stroke-width="1"/>
  

  
  <!-- Front door (centered on first floor) -->
  <rect x="150" y="240" width="20" height="40" fill="#8B4513" stroke="#654321" stroke-width="1"/>
  <circle cx="167" cy="260" r="2" fill="#DAA520"/>
  <rect x="146" y="235" width="28" height="5" fill="#A0522D"/>
  
  <!-- Windows - First floor (properly spaced) -->
  <rect x="80" y="220" width="30" height="35" fill="#87CEEB" stroke="#4682B4" stroke-width="2"/>
  <rect x="190" y="220" width="30" height="35" fill="#87CEEB" stroke="#4682B4" stroke-width="2"/>
  
  <!-- Window frames and mullions - First floor -->
  <rect x="78" y="218" width="34" height="39" fill="none" stroke="#FFFFFF" stroke-width="3"/>
  <rect x="188" y="218" width="34" height="39" fill="none" stroke="#FFFFFF" stroke-width="3"/>
  <line x1="95" y1="220" x2="95" y2="255" stroke="#4682B4" stroke-width="1"/>
  <line x1="80" y1="237.5" x2="110" y2="237.5" stroke="#4682B4" stroke-width="1"/>
  <line x1="205" y1="220" x2="205" y2="255" stroke="#4682B4" stroke-width="1"/>
  <line x1="190" y1="237.5" x2="220" y2="237.5" stroke="#4682B4" stroke-width="1"/>
  
  <!-- Windows - Second floor (aligned with first floor) -->
  <rect x="85" y="160" width="28" height="25" fill="#87CEEB" stroke="#4682B4" stroke-width="2"/>
  <rect x="137" y="160" width="28" height="25" fill="#87CEEB" stroke="#4682B4" stroke-width="2"/>
  <rect x="195" y="160" width="28" height="25" fill="#87CEEB" stroke="#4682B4" stroke-width="2"/>
  
  <!-- Window frames - Second floor -->
  <rect x="83" y="158" width="32" height="29" fill="none" stroke="#FFFFFF" stroke-width="3"/>
  <rect x="135" y="158" width="32" height="29" fill="none" stroke="#FFFFFF" stroke-width="3"/>
  <rect x="193" y="158" width="32" height="29" fill="none" stroke="#FFFFFF" stroke-width="3"/>
  <line x1="99" y1="160" x2="99" y2="185" stroke="#4682B4" stroke-width="1"/>
  <line x1="85" y1="172.5" x2="113" y2="172.5" stroke="#4682B4" stroke-width="1"/>
  <line x1="151" y1="160" x2="151" y2="185" stroke="#4682B4" stroke-width="1"/>
  <line x1="137" y1="172.5" x2="165" y2="172.5" stroke="#4682B4" stroke-width="1"/>
  <line x1="209" y1="160" x2="209" y2="185" stroke="#4682B4" stroke-width="1"/>
  <line x1="195" y1="172.5" x2="223" y2="172.5" stroke="#4682B4" stroke-width="1"/>
  
  <!-- Windows - Third floor (dormer style) -->
  <rect x="110" y="105" width="22" height="20" fill="#87CEEB" stroke="#4682B4" stroke-width="2"/>
  <rect x="188" y="105" width="22" height="20" fill="#87CEEB" stroke="#4682B4" stroke-width="2"/>
  
  <!-- Dormer roofs for third floor windows -->
  <polygon points="105,105 121,95 137,105" fill="#8B4513" stroke="#654321" stroke-width="1"/>
  <polygon points="183,105 199,95 215,105" fill="#8B4513" stroke="#654321" stroke-width="1"/>
  
  <!-- Window frames - Third floor -->
  <rect x="108" y="103" width="26" height="24" fill="none" stroke="#FFFFFF" stroke-width="2"/>
  <rect x="186" y="103" width="26" height="24" fill="none" stroke="#FFFFFF" stroke-width="2"/>
  <line x1="121" y1="105" x2="121" y2="125" stroke="#4682B4" stroke-width="1"/>
  <line x1="110" y1="115" x2="132" y2="115" stroke="#4682B4" stroke-width="1"/>
  <line x1="199" y1="105" x2="199" y2="125" stroke="#4682B4" stroke-width="1"/>
  <line x1="188" y1="115" x2="210" y2="115" stroke="#4682B4" stroke-width="1"/>
  
  <!-- Garage door -->
  <rect x="270" y="240" width="60" height="40" fill="#E6E6FA" stroke="#C0C0C0" stroke-width="2"/>
  
  <!-- Garage door panels -->
  <line x1="270" y1="250" x2="330" y2="250" stroke="#C0C0C0" stroke-width="1"/>
  <line x1="270" y1="260" x2="330" y2="260" stroke="#C0C0C0" stroke-width="1"/>
  <line x1="270" y1="270" x2="330" y2="270" stroke="#C0C0C0" stroke-width="1"/>
  <circle cx="320" cy="260" r="2" fill="#696969"/>
  
  <!-- Foundation -->
  <rect x="55" y="280" width="210" height="10" fill="#708090" stroke="#2F4F4F" stroke-width="1"/>
  <rect x="255" y="280" width="90" height="10" fill="#708090" stroke="#2F4F4F" stroke-width="1"/>
  
  <!-- Architectural trim -->
  <rect x="58" y="90" width="4" height="190" fill="#DEB887"/>
  <rect x="258" y="90" width="4" height="190" fill="#DEB887"/>
  
  <!-- Floor separation trim -->
  <rect x="60" y="137" width="200" height="3" fill="#D2B48C"/>
  <rect x="60" y="197" width="200" height="3" fill="#D2B48C"/>
  
  <!-- Roof gutters -->
  <rect x="65" y="87" width="190" height="3" fill="#A0522D"/>
  <rect x="255" y="217" width="90" height="3" fill="#A0522D"/>
  
  <!-- Window boxes (decorative) -->
  <rect x="76" y="255" width="38" height="6" fill="#8B4513" stroke="#654321" stroke-width="1"/>
  <rect x="186" y="255" width="38" height="6" fill="#8B4513" stroke="#654321" stroke-width="1"/>
  
  <!-- Window awnings/shades - First floor -->
  <polygon points="76,218 114,218 110,210 80,210" fill="#228B22" stroke="#006400" stroke-width="1"/>
  <polygon points="186,218 224,218 220,210 190,210" fill="#228B22" stroke="#006400" stroke-width="1"/>
  
  <!-- Window awnings/shades - Second floor -->
  <polygon points="81,158 117,158 113,152 85,152" fill="#228B22" stroke="#006400" stroke-width="1"/>
  <polygon points="133,158 169,158 165,152 137,152" fill="#228B22" stroke="#006400" stroke-width="1"/>
  <polygon points="191,158 227,158 223,152 195,152" fill="#228B22" stroke="#006400" stroke-width="1"/>
  
  <!-- Window awnings/shades - Third floor -->
  <polygon points="106,103 136,103 133,98 109,98" fill="#228B22" stroke="#006400" stroke-width="1"/>
  <polygon points="184,103 214,103 211,98 187,98" fill="#228B22" stroke="#006400" stroke-width="1"/>
  
  <!-- Roof ridge -->
  <rect x="158" y="38" width="4" height="4" fill="#654321"/>
  
  <!-- Front steps -->
  <rect x="145" y="275" width="30" height="5" fill="#A9A9A9" stroke="#696969" stroke-width="1"/>
  <rect x="148" y="270" width="24" height="5" fill="#B8860B" stroke="#8B7355" stroke-width="1"/>
</svg>