<svg viewBox="0 0 200 200" xmlns="http://www.w3.org/2000/svg">
  <defs>
    <!-- Static gradients for depth -->
    <linearGradient id="wallGradient" x1="0%" y1="0%" x2="100%" y2="0%">
      <stop offset="0%" style="stop-color:#F5F5F5;stop-opacity:1" />
      <stop offset="50%" style="stop-color:#FFFFFF;stop-opacity:1" />
      <stop offset="100%" style="stop-color:#E8E8E8;stop-opacity:1" />
    </linearGradient>
    
    <linearGradient id="upperWallGradient" x1="0%" y1="0%" x2="100%" y2="0%">
      <stop offset="0%" style="stop-color:#E0E0E0;stop-opacity:1" />
      <stop offset="50%" style="stop-color:#F0F0F0;stop-opacity:1" />
      <stop offset="100%" style="stop-color:#D8D8D8;stop-opacity:1" />
    </linearGradient>
    
    <linearGradient id="roofGradient" x1="0%" y1="0%" x2="0%" y2="100%">
      <stop offset="0%" style="stop-color:#4A4A4A;stop-opacity:1" />
      <stop offset="100%" style="stop-color:#3A3A3A;stop-opacity:1" />
    </linearGradient>
    
    <linearGradient id="garageGradient" x1="0%" y1="0%" x2="0%" y2="100%">
      <stop offset="0%" style="stop-color:#C0C0C0;stop-opacity:1" />
      <stop offset="100%" style="stop-color:#A8A8A8;stop-opacity:1" />
    </linearGradient>
    
    <linearGradient id="doorGradient" x1="0%" y1="0%" x2="100%" y2="0%">
      <stop offset="0%" style="stop-color:#2E8B57;stop-opacity:1" />
      <stop offset="50%" style="stop-color:#3CB371;stop-opacity:1" />
      <stop offset="100%" style="stop-color:#228B22;stop-opacity:1" />
    </linearGradient>
  </defs>
  
  <!-- Foundation -->
  <rect x="35" y="170" width="130" height="6" fill="#8B7D6B"/>
  
  <!-- Main house structure (lower level) -->
  <rect x="35" y="115" width="130" height="55" fill="url(#wallGradient)"/>
  
  <!-- Wall texture lines -->
  <line x1="35" y1="130" x2="165" y2="130" stroke="#E0E0E0" stroke-width="0.5" opacity="0.7"/>
  <line x1="35" y1="145" x2="165" y2="145" stroke="#E0E0E0" stroke-width="0.5" opacity="0.7"/>
  <line x1="35" y1="160" x2="165" y2="160" stroke="#E0E0E0" stroke-width="0.5" opacity="0.7"/>
  
  <!-- Upper level -->
  <rect x="65" y="85" width="100" height="35" fill="url(#upperWallGradient)"/>
  
  <!-- Upper wall texture -->
  <line x1="65" y1="95" x2="165" y2="95" stroke="#D8D8D8" stroke-width="0.5" opacity="0.6"/>
  <line x1="65" y1="110" x2="165" y2="110" stroke="#D8D8D8" stroke-width="0.5" opacity="0.6"/>
  
  <!-- Garage door with panels -->
  <rect x="40" y="130" width="45" height="35" fill="url(#garageGradient)" stroke="#999999" stroke-width="0.5"/>
  
  <!-- Garage door panel details -->
  <rect x="42" y="132" width="41" height="8" fill="#B5B5B5" stroke="#A0A0A0" stroke-width="0.3"/>
  <rect x="42" y="142" width="41" height="8" fill="#B5B5B5" stroke="#A0A0A0" stroke-width="0.3"/>
  <rect x="42" y="152" width="41" height="8" fill="#B5B5B5" stroke="#A0A0A0" stroke-width="0.3"/>
  
  <!-- Garage door handle -->
  <rect x="78" y="148" width="3" height="2" fill="#666666" rx="0.5"/>
  
  <!-- Front door -->
  <rect x="95" y="135" width="25" height="35" fill="url(#doorGradient)" stroke="#1F5F3F" stroke-width="0.5" rx="1"/>
  
  <!-- Door panels -->
  <rect x="97" y="137" width="21" height="12" fill="none" stroke="#1F5F3F" stroke-width="0.4" rx="0.5"/>
  <rect x="97" y="151" width="21" height="16" fill="none" stroke="#1F5F3F" stroke-width="0.4" rx="0.5"/>
  
  <!-- Door handle and lock -->
  <circle cx="114" cy="152" r="1.5" fill="#B8860B"/>
  <rect x="113" y="155" width="2" height="1" fill="#B8860B" rx="0.2"/>
  
  <!-- Upper level windows with frames -->
  <rect x="75" y="95" width="18" height="18" fill="#FFF8DC" stroke="#8B7D6B" stroke-width="1"/>
  <rect x="105" y="95" width="18" height="18" fill="#FFF8DC" stroke="#8B7D6B" stroke-width="1"/>
  
  <!-- Window frames and mullions -->
  <rect x="76" y="96" width="16" height="16" fill="none" stroke="#654321" stroke-width="0.8"/>
  <line x1="84" y1="96" x2="84" y2="112" stroke="#654321" stroke-width="0.4"/>
  <line x1="76" y1="104" x2="92" y2="104" stroke="#654321" stroke-width="0.4"/>
  
  <rect x="106" y="96" width="16" height="16" fill="none" stroke="#654321" stroke-width="0.8"/>
  <line x1="114" y1="96" x2="114" y2="112" stroke="#654321" stroke-width="0.4"/>
  <line x1="106" y1="104" x2="122" y2="104" stroke="#654321" stroke-width="0.4"/>
  
  <!-- Large living room windows -->
  <rect x="130" y="130" width="15" height="30" fill="#FFF8DC" stroke="#8B7D6B" stroke-width="1"/>
  <rect x="148" y="130" width="15" height="30" fill="#FFF8DC" stroke="#8B7D6B" stroke-width="1"/>
  
  <!-- Large window frames -->
  <rect x="131" y="131" width="13" height="28" fill="none" stroke="#654321" stroke-width="0.8"/>
  <line x1="137.5" y1="131" x2="137.5" y2="159" stroke="#654321" stroke-width="0.4"/>
  <line x1="131" y1="145" x2="144" y2="145" stroke="#654321" stroke-width="0.4"/>
  
  <rect x="149" y="131" width="13" height="28" fill="none" stroke="#654321" stroke-width="0.8"/>
  <line x1="155.5" y1="131" x2="155.5" y2="159" stroke="#654321" stroke-width="0.4"/>
  <line x1="149" y1="145" x2="162" y2="145" stroke="#654321" stroke-width="0.4"/>
  
  <!-- Flat roof with overhang -->
  <rect x="60" y="80" width="110" height="8" fill="url(#roofGradient)"/>
  
  <!-- Roof edge detail -->
  <rect x="60" y="87" width="110" height="1" fill="#2A2A2A"/>
  
  <!-- Chimney -->
  <rect x="135" y="65" width="10" height="20" fill="#8B4513" stroke="#654321" stroke-width="0.5"/>
  <rect x="134" y="64" width="12" height="2" fill="#A0522D"/>
</svg>