<svg xmlns="http://www.w3.org/2000/svg" width="100%" height="auto" viewBox="0 0 206 244" version="1.1" preserveAspectRatio="xMidYMid meet" style="max-width: 100%; max-height: 70vh;">
	<path d="M 22.222 7.258 C 20.419 10.691, 18.956 14.397, 18.972 15.494 C 18.990 16.748, 30.038 28.621, 48.750 47.494 L 78.500 77.500 78 96.265 L 77.500 115.030 70.169 111.515 C 61.953 107.576, 59.332 107.261, 54.700 109.654 C 50.087 112.038, 49.068 113.848, 49.032 119.725 L 49 124.950 46.326 123.934 C 42.617 122.524, 38.613 123.625, 34.926 127.069 C 32.154 129.658, 31.839 130.508, 32.159 134.527 C 32.515 139.003, 32.470 139.079, 28.776 140.185 C 23.918 141.641, 21.955 143.913, 21.293 148.852 C 20.864 152.053, 20.191 153.092, 17.950 154.021 C 10.782 156.990, 9.178 163.914, 13.717 172.294 L 16.676 177.756 8.909 184.628 C 4.638 188.408, 1.111 192.223, 1.072 193.106 C 0.902 196.912, 16.742 213, 20.659 213 C 21.470 213, 23.620 211.425, 25.435 209.500 C 27.251 207.575, 29.183 206, 29.729 206 C 30.879 206, 37.589 212.464, 43.817 219.573 C 46.949 223.147, 48.553 226.148, 49.659 230.500 C 50.498 233.800, 51.817 237.158, 52.591 237.963 C 54.478 239.926, 62.240 242.160, 63.343 241.057 C 63.839 240.561, 63.675 237.165, 62.964 233.187 C 61.755 226.423, 62.202 221.678, 63.867 223.583 C 65.046 224.931, 67.790 232.930, 68.559 237.261 C 69.284 241.347, 69.998 242.240, 71.693 241.184 C 73.377 240.136, 70.836 227.321, 67.934 222.224 C 65.372 217.722, 61.903 215.955, 59.085 217.715 C 57.091 218.960, 51 218.176, 51 216.674 C 51 216.070, 52.238 214.531, 53.750 213.255 C 56.382 211.035, 56.418 210.883, 54.596 209.718 C 53.549 209.048, 50.399 206.501, 47.596 204.058 C 40.567 197.931, 40.643 195.501, 47.944 192.930 C 50.938 191.875, 53.804 190.596, 54.313 190.087 C 54.881 189.519, 56.546 190.872, 58.620 193.589 C 62.499 198.670, 62.828 200.029, 60 199.290 C 57.241 198.568, 57.453 200.825, 60.250 201.941 C 69.069 205.461, 80.471 207.196, 82.361 205.305 C 82.743 204.923, 80.681 203.807, 77.778 202.825 C 74.875 201.842, 73.764 201.270, 75.310 201.553 C 76.855 201.836, 79.780 201.738, 81.810 201.334 L 85.500 200.599 80.500 199.396 C 76.232 198.368, 75.967 198.178, 78.691 198.096 C 84.248 197.929, 83.240 196.225, 76.756 194.827 C 72.489 193.907, 70.503 193.006, 70.502 191.990 C 70.501 191.170, 69.815 189.375, 68.978 188 C 68.140 186.625, 67.015 184.776, 66.478 183.890 C 65.940 183.005, 64.710 181.167, 63.744 179.806 C 61.813 177.086, 61.882 176.858, 67.508 167.500 C 68.831 165.300, 69.933 162.318, 69.957 160.872 C 70.019 157.119, 72.222 155.737, 77.476 156.155 C 82.062 156.519, 83.148 155.548, 80.788 153.188 C 80.122 152.522, 79.695 150.295, 79.840 148.238 C 79.985 146.182, 79.425 142.588, 78.596 140.250 C 77.767 137.912, 77.372 136, 77.719 136 C 78.065 136, 77.350 134.937, 76.129 133.637 C 74.908 132.337, 74.042 130.650, 74.204 129.887 C 74.421 128.871, 73.502 128.558, 70.767 128.718 C 67.659 128.900, 66.458 128.343, 63.591 125.391 C 59.675 121.358, 55.616 113.443, 56.407 111.381 C 57.224 109.251, 62.969 109.806, 68 112.500 C 70.475 113.825, 72.050 114.927, 71.500 114.949 C 70.950 114.970, 69.196 114.307, 67.601 113.476 C 63.988 111.592, 63.326 112.080, 66.095 114.586 C 67.644 115.988, 69.434 116.428, 72.851 116.249 C 80.974 115.822, 83.662 116.717, 86.100 120.662 C 87.900 123.574, 88.101 124.609, 87.161 126.114 C 85.625 128.573, 85.697 129.054, 87.496 128.363 C 88.699 127.902, 88.870 128.398, 88.371 130.895 C 87.971 132.896, 88.150 134, 88.875 134 C 89.494 134, 90.045 132.988, 90.100 131.750 C 90.195 129.591, 90.232 129.602, 91 132 C 91.440 133.375, 91.865 136.525, 91.944 139 C 92.023 141.475, 92.782 145.300, 93.631 147.500 C 95.929 153.457, 95.535 155.138, 90.895 159.169 L 86.672 162.837 88.937 171.265 C 90.962 178.802, 91.085 180.442, 90.101 186.784 C 88.629 196.275, 90.303 204.056, 98.029 223.625 C 101.313 231.944, 104 239.465, 104 240.340 C 104 242.354, 107.946 244.701, 108.111 242.785 C 108.410 239.306, 107.446 235.751, 103.048 224.126 C 100.421 217.182, 97.736 209.025, 97.080 206 C 95.505 198.729, 95.627 186.799, 97.463 168.630 L 98.965 153.760 96.099 146.630 C 94.523 142.708, 93.395 139.324, 93.592 139.108 C 93.789 138.893, 103.074 138.408, 114.225 138.031 C 125.376 137.654, 135.175 137.043, 136 136.673 C 137.075 136.192, 144.847 143.790, 163.440 163.501 C 177.706 178.625, 189.717 191, 190.130 191 C 192.075 191, 191.882 188.788, 189.761 186.754 C 188.468 185.514, 181.838 178.425, 175.029 171 C 168.220 163.575, 150.465 145.327, 135.574 130.448 C 88.430 83.342, 20.717 13.950, 21.313 13.353 C 21.629 13.038, 41.633 32.516, 65.767 56.640 C 89.901 80.763, 113.214 103.894, 117.574 108.043 C 121.933 112.191, 129.293 119.616, 133.929 124.543 C 174.194 167.330, 194.397 187.927, 195.385 187.196 C 201.891 182.382, 205 179.652, 205 178.755 C 205 177.037, 28.755 0.999, 27.044 1.008 C 26.171 1.013, 24.075 3.731, 22.222 7.258 M 51.500 114 C 50.718 116.464, 51.806 120.238, 53.072 119.456 C 54.285 118.706, 54.281 112, 53.067 112 C 52.554 112, 51.849 112.900, 51.500 114 M 39.302 126.012 C 35.933 127.369, 33.882 132.102, 34.990 135.965 C 36.488 141.188, 40.676 147.548, 45.998 152.684 C 48.854 155.440, 50.992 158.396, 50.995 159.595 C 50.998 160.747, 51.788 162.366, 52.750 163.193 C 56.485 166.400, 57.154 166.121, 54.631 162.408 C 51.361 157.595, 51.367 156.008, 54.664 153.604 C 56.094 152.561, 57.078 152.111, 56.850 152.604 C 56.622 153.097, 55.812 154.746, 55.049 156.269 C 53.757 158.849, 53.852 159.236, 56.447 161.945 C 58.889 164.494, 59.535 164.714, 61.691 163.731 C 63.043 163.115, 64.757 161.437, 65.499 160.002 C 66.711 157.659, 66.567 156.812, 64.095 151.696 C 61.819 146.986, 61.615 145.994, 62.921 145.967 C 65.300 145.917, 69.290 142.199, 68.678 140.603 C 68.011 138.865, 61.461 136.609, 59.390 137.404 C 58.385 137.789, 58.080 138.677, 58.498 139.995 C 58.848 141.098, 58.731 142, 58.237 142 C 56.839 142, 51.417 133.908, 50.099 129.855 C 48.611 125.276, 44.640 123.862, 39.302 126.012 M 27.642 141.871 C 24.164 143.239, 23.122 146.748, 24.471 152.551 C 26.149 159.771, 28.778 163.870, 34.510 168.202 C 37.203 170.238, 40.219 173.487, 41.212 175.421 C 42.204 177.356, 43.980 179.454, 45.159 180.085 L 47.301 181.231 45.151 178.211 C 42.426 174.385, 42.436 172.509, 45.190 170.580 C 47.954 168.644, 48.851 169.402, 46.661 171.823 C 44.553 174.152, 44.576 174.595, 46.982 177.974 C 49.776 181.898, 52.685 182.406, 55.610 179.481 C 58.354 176.737, 58.722 172.844, 56.419 170.933 C 53.750 168.718, 43.424 155.613, 38.434 148.110 C 33.629 140.884, 32.222 140.070, 27.642 141.871 M 17.441 156.439 C 15.789 157.664, 15.686 158.183, 16.750 159.926 C 17.438 161.052, 18 163.347, 18 165.026 C 18 168.899, 20.806 174.379, 25.413 179.500 C 28.655 183.104, 28.845 183.195, 27.334 180.418 C 25.598 177.229, 26.018 174, 28.169 174 C 29.126 174, 29.133 174.267, 28.200 175.200 C 26.375 177.025, 26.754 178.793, 29.334 180.483 C 31.202 181.707, 32.298 181.792, 34.834 180.908 C 36.575 180.301, 38 179.272, 38 178.621 C 38 177.197, 21.215 155, 20.138 155 C 19.722 155, 18.509 155.648, 17.441 156.439" stroke="none" fill="black" fill-rule="evenodd"/>
</svg>