<?xml version="1.0" standalone="no"?>
<svg xmlns:xlink="http://www.w3.org/1999/xlink" id="wave" style="transform:rotate(0deg); transition: 0.3s" viewBox="0 0 1440 100" version="1.1" xmlns="http://www.w3.org/2000/svg"><defs><linearGradient id="sw-gradient-0" x1="0" x2="0" y1="1" y2="0"><stop stop-color="rgba(76.166, 100.561, 192.632, 1)" offset="0%"/><stop stop-color="rgba(172.782, 187.104, 255, 1)" offset="100%"/></linearGradient></defs><path style="transform:translate(0, 0px); opacity:1" fill="url(#sw-gradient-0)" d="M0,30L26.7,38.3C53.3,47,107,63,160,68.3C213.3,73,267,67,320,58.3C373.3,50,427,40,480,30C533.3,20,587,10,640,18.3C693.3,27,747,53,800,53.3C853.3,53,907,27,960,28.3C1013.3,30,1067,60,1120,61.7C1173.3,63,1227,37,1280,33.3C1333.3,30,1387,50,1440,48.3C1493.3,47,1547,23,1600,11.7C1653.3,0,1707,0,1760,8.3C1813.3,17,1867,33,1920,46.7C1973.3,60,2027,70,2080,63.3C2133.3,57,2187,33,2240,31.7C2293.3,30,2347,50,2400,51.7C2453.3,53,2507,37,2560,30C2613.3,23,2667,27,2720,26.7C2773.3,27,2827,23,2880,33.3C2933.3,43,2987,67,3040,75C3093.3,83,3147,77,3200,65C3253.3,53,3307,37,3360,38.3C3413.3,40,3467,60,3520,60C3573.3,60,3627,40,3680,38.3C3733.3,37,3787,53,3813,61.7L3840,70L3840,100L3813.3,100C3786.7,100,3733,100,3680,100C3626.7,100,3573,100,3520,100C3466.7,100,3413,100,3360,100C3306.7,100,3253,100,3200,100C3146.7,100,3093,100,3040,100C2986.7,100,2933,100,2880,100C2826.7,100,2773,100,2720,100C2666.7,100,2613,100,2560,100C2506.7,100,2453,100,2400,100C2346.7,100,2293,100,2240,100C2186.7,100,2133,100,2080,100C2026.7,100,1973,100,1920,100C1866.7,100,1813,100,1760,100C1706.7,100,1653,100,1600,100C1546.7,100,1493,100,1440,100C1386.7,100,1333,100,1280,100C1226.7,100,1173,100,1120,100C1066.7,100,1013,100,960,100C906.7,100,853,100,800,100C746.7,100,693,100,640,100C586.7,100,533,100,480,100C426.7,100,373,100,320,100C266.7,100,213,100,160,100C106.7,100,53,100,27,100L0,100Z"/></svg>